<svg width="71" height="48" viewBox="0 0 71 48" fill="none" xmlns="http://www.w3.org/2000/svg">
    <path d="M11.1562 19H1.11768V17.2876L6.09082 11.8633C6.80859 11.0635 7.31787 10.397 7.61865 9.86377C7.92627 9.32373 8.08008 8.78369 8.08008 8.24365C8.08008 7.53271 7.87842 6.9585 7.4751 6.521C7.07861 6.0835 6.54199 5.86475 5.86523 5.86475C5.05859 5.86475 4.43311 6.11084 3.98877 6.60303C3.54443 7.09521 3.32227 7.76855 3.32227 8.62305H0.830566C0.830566 7.71387 1.03564 6.89697 1.4458 6.17236C1.86279 5.44092 2.4541 4.87354 3.21973 4.47021C3.99219 4.06689 4.88086 3.86523 5.88574 3.86523C7.33496 3.86523 8.47656 4.23096 9.31055 4.9624C10.1514 5.68701 10.5718 6.69189 10.5718 7.97705C10.5718 8.72217 10.3599 9.50488 9.93604 10.3252C9.51904 11.1387 8.83203 12.0649 7.875 13.104L4.22461 17.0107H11.1562V19ZM22.7842 12.7144C22.7842 14.8608 22.3809 16.481 21.5742 17.5747C20.7744 18.6616 19.5542 19.2051 17.9136 19.2051C16.3003 19.2051 15.0835 18.6753 14.2632 17.6157C13.4497 16.5493 13.0327 14.9736 13.0122 12.8887V10.3047C13.0122 8.1582 13.4121 6.54834 14.2119 5.4751C15.0186 4.40186 16.2456 3.86523 17.8931 3.86523C19.5269 3.86523 20.7437 4.38818 21.5435 5.43408C22.3501 6.47998 22.7637 8.04541 22.7842 10.1304V12.7144ZM20.2925 9.92529C20.2925 8.52393 20.1011 7.49854 19.7183 6.84912C19.3354 6.19287 18.7271 5.86475 17.8931 5.86475C17.0796 5.86475 16.4814 6.17578 16.0986 6.79785C15.7158 7.41309 15.5142 8.37695 15.4937 9.68945V13.0732C15.4937 14.4678 15.6885 15.5068 16.0781 16.1904C16.4678 16.874 17.0796 17.2158 17.9136 17.2158C18.7134 17.2158 19.3047 16.9014 19.6875 16.2725C20.0703 15.6367 20.272 14.6455 20.2925 13.2988V9.92529ZM30.9053 10.7866H34.8018V13.063H30.9053V17.5029H28.4854V13.063H24.5684V10.7866H28.4854V6.63379H30.9053V10.7866Z"
          fill="none" stroke="white"/>
    <path d="M10.0078 44H8.5V33.8594H2.89062V44H1.39062V32.625H10.0078V44ZM19.6562 39.8672C19.6562 41.1536 19.362 42.1901 18.7734 42.9766C18.1849 43.763 17.388 44.1562 16.3828 44.1562C15.3568 44.1562 14.5495 43.8307 13.9609 43.1797V47.25H12.5156V35.5469H13.8359L13.9062 36.4844C14.4948 35.7552 15.3125 35.3906 16.3594 35.3906C17.375 35.3906 18.1771 35.7734 18.7656 36.5391C19.3594 37.3047 19.6562 38.3698 19.6562 39.7344V39.8672ZM18.2109 39.7031C18.2109 38.75 18.0078 37.9974 17.6016 37.4453C17.1953 36.8932 16.638 36.6172 15.9297 36.6172C15.0547 36.6172 14.3984 37.0052 13.9609 37.7812V41.8203C14.3932 42.5911 15.0547 42.9766 15.9453 42.9766C16.638 42.9766 17.1875 42.7031 17.5938 42.1562C18.0052 41.6042 18.2109 40.7865 18.2109 39.7031ZM21.1172 39.6953C21.1172 38.8672 21.2786 38.1224 21.6016 37.4609C21.9297 36.7995 22.3828 36.2891 22.9609 35.9297C23.5443 35.5703 24.2083 35.3906 24.9531 35.3906C26.1042 35.3906 27.0339 35.7891 27.7422 36.5859C28.4557 37.3828 28.8125 38.4427 28.8125 39.7656V39.8672C28.8125 40.6901 28.6536 41.4297 28.3359 42.0859C28.0234 42.737 27.5729 43.2448 26.9844 43.6094C26.401 43.974 25.7292 44.1562 24.9688 44.1562C23.8229 44.1562 22.8932 43.7578 22.1797 42.9609C21.4714 42.1641 21.1172 41.1094 21.1172 39.7969V39.6953ZM22.5703 39.8672C22.5703 40.8047 22.7865 41.5573 23.2188 42.125C23.6562 42.6927 24.2396 42.9766 24.9688 42.9766C25.7031 42.9766 26.2865 42.6901 26.7188 42.1172C27.151 41.5391 27.3672 40.7318 27.3672 39.6953C27.3672 38.7682 27.1458 38.0182 26.7031 37.4453C26.2656 36.8672 25.6823 36.5781 24.9531 36.5781C24.2396 36.5781 23.6641 36.862 23.2266 37.4297C22.7891 37.9974 22.5703 38.8099 22.5703 39.8672ZM34.1328 44.1562C32.987 44.1562 32.0547 43.7812 31.3359 43.0312C30.6172 42.276 30.2578 41.2682 30.2578 40.0078V39.7422C30.2578 38.9036 30.4167 38.1562 30.7344 37.5C31.0573 36.8385 31.5052 36.3229 32.0781 35.9531C32.6562 35.5781 33.2812 35.3906 33.9531 35.3906C35.0521 35.3906 35.9062 35.7526 36.5156 36.4766C37.125 37.2005 37.4297 38.237 37.4297 39.5859V40.1875H31.7031C31.724 41.0208 31.9661 41.6953 32.4297 42.2109C32.8984 42.7214 33.4922 42.9766 34.2109 42.9766C34.7214 42.9766 35.1536 42.8724 35.5078 42.6641C35.862 42.4557 36.1719 42.1797 36.4375 41.8359L37.3203 42.5234C36.612 43.612 35.5495 44.1562 34.1328 44.1562ZM33.9531 36.5781C33.3698 36.5781 32.8802 36.7917 32.4844 37.2188C32.0885 37.6406 31.8438 38.2344 31.75 39H35.9844V38.8906C35.9427 38.1562 35.7448 37.5885 35.3906 37.1875C35.0365 36.7812 34.5573 36.5781 33.9531 36.5781ZM41.7422 40.3984H40.6875V44H39.2344V35.5469H40.6875V39.125H41.6328L44.4766 35.5469H46.2266L42.8828 39.6094L46.5078 44H44.6719L41.7422 40.3984ZM54.0312 36.7188H51.1953V44H49.75V36.7188H46.9688V35.5469H54.0312V36.7188ZM57.0078 44H55.5625V35.5469H57.0078V44ZM55.4453 33.3047C55.4453 33.0703 55.5156 32.8724 55.6562 32.7109C55.8021 32.5495 56.0156 32.4688 56.2969 32.4688C56.5781 32.4688 56.7917 32.5495 56.9375 32.7109C57.0833 32.8724 57.1562 33.0703 57.1562 33.3047C57.1562 33.5391 57.0833 33.7344 56.9375 33.8906C56.7917 34.0469 56.5781 34.125 56.2969 34.125C56.0156 34.125 55.8021 34.0469 55.6562 33.8906C55.5156 33.7344 55.4453 33.5391 55.4453 33.3047ZM59.4609 44V35.5469H62.7578C63.8828 35.5469 64.7448 35.7448 65.3438 36.1406C65.9479 36.5312 66.25 37.1068 66.25 37.8672C66.25 38.2578 66.1328 38.612 65.8984 38.9297C65.6641 39.2422 65.3177 39.4818 64.8594 39.6484C65.3698 39.7682 65.7786 40.0026 66.0859 40.3516C66.3984 40.7005 66.5547 41.1172 66.5547 41.6016C66.5547 42.3776 66.2682 42.9714 65.6953 43.3828C65.1276 43.7943 64.3229 44 63.2812 44H59.4609ZM60.9062 40.2891V42.8359H63.2969C63.901 42.8359 64.3516 42.724 64.6484 42.5C64.9505 42.276 65.1016 41.9609 65.1016 41.5547C65.1016 40.7109 64.4818 40.2891 63.2422 40.2891H60.9062ZM60.9062 39.1328H62.7734C64.1276 39.1328 64.8047 38.737 64.8047 37.9453C64.8047 37.1536 64.1641 36.7448 62.8828 36.7188H60.9062V39.1328Z"
          fill="none" stroke="white"/>
</svg>
